<?xml version="1.0" encoding="UTF-8"?>
<svg width="16px" height="16px" viewBox="0 0 16 16" version="1.1" xmlns="http://www.w3.org/2000/svg" xmlns:xlink="http://www.w3.org/1999/xlink">
    <title>路径</title>
    <g id="归集配置" stroke="none" stroke-width="1" fill="none" fill-rule="evenodd">
        <g id="租控图" transform="translate(-19.000000, -82.000000)" fill="#C8C8CC" fill-rule="nonzero">
            <g id="编组-5" transform="translate(0.000000, 60.000000)">
                <g id="目标公司候选人" transform="translate(19.000000, 22.000000)">
                    <path d="M13.4529426,11.6699559 C14.0632621,11.0564792 14.2519288,10.1236779 13.9301719,9.31045093 C13.608415,8.49722394 12.8403115,7.96552339 11.9872672,7.96552339 C11.1342229,7.96552339 10.3661195,8.49722394 10.0443626,9.31045093 C9.7226057,10.1236779 9.91127244,11.0564792 10.5215919,11.6699559 C9.53594343,12.0165751 8.89403063,12.9950874 8.94996419,14.0656972 C8.94996419,14.9745521 10.2637743,14.9745521 12.0826244,14.9745521 L13.166871,14.9745521 C13.9403238,14.9745521 14.4700859,14.9272916 14.7738162,14.6110101 C14.9210036,14.464507 15.0028072,14.2618889 14.9998481,14.0511555 C15.0104433,12.8514671 14.4665542,12.0334978 13.4529426,11.6699559 L13.4529426,11.6699559 Z M11.9837355,8.87795377 C12.654718,8.87795377 13.1986567,9.43785942 13.1986567,10.128538 C13.1986567,10.8192167 12.654718,11.3791223 11.9837355,11.3791223 C11.312753,11.3791223 10.7688143,10.8192167 10.7688143,10.128538 C10.7650448,9.79401521 10.891266,9.47180561 11.1194152,9.23354576 C11.3475645,8.99528591 11.6587317,8.86072387 11.9837355,8.85977668 L11.9837355,8.87795377 Z M12.690085,14.0838743 L12.0896879,14.0838743 C11.3833384,14.0838743 10.2072664,14.0838743 9.84349637,13.9493638 C9.91413132,12.6297066 11.0372271,12.3461438 11.9802038,12.3461438 C13.8414348,12.3461438 14.0992524,13.2804466 14.1204429,14.0148013 C13.6483351,14.0883787 13.1695401,14.1054577 12.6936168,14.0656972 L12.690085,14.0838743 Z" id="形状"></path>
                    <path d="M12.368696,4.22461698 L10.2178616,4.22461698 L10.2178616,2.66138666 C10.2159192,1.74465761 9.4944395,1.00199942 8.6038529,1 L3.75123149,1 C2.86064489,1.00199941 2.13916516,1.7446576 2.13722276,2.66138666 L2.13722276,13.9093742 L1.52976216,13.9093742 C1.2371826,13.9093742 1,14.1535191 1,14.4546871 C1,14.7558551 1.2371826,15 1.52976216,15 L7.48782062,15 C7.78040018,15 8.01758278,14.7558551 8.01758278,14.4546871 C8.01758278,14.1535191 7.78040018,13.9093742 7.48782062,13.9093742 L3.19674709,13.9093742 L3.19674709,2.66138666 C3.19674709,2.34616415 3.44499821,2.09062581 3.75123149,2.09062581 L8.6038529,2.09062581 C8.9092844,2.09260945 9.15641024,2.34698946 9.1583373,2.66138666 L9.1583373,7.22383796 C9.15838682,7.52496992 9.39555491,7.76905857 9.68809946,7.76905857 C9.98064401,7.76905857 10.2178121,7.52496992 10.2178616,7.22383796 L10.2178616,5.31524279 L12.368696,5.31524279 C12.6749293,5.3152428 12.9231804,5.57078113 12.9231804,5.88600364 C12.9231804,6.18717164 13.160363,6.43131655 13.4529426,6.43131655 C13.7455221,6.43131655 13.9827047,6.18717164 13.9827047,5.88600364 C13.9807623,4.96927459 13.2592826,4.2266164 12.368696,4.22461698 Z" id="路径"></path>
                    <path d="M7.63262227,5.71877434 L4.71893038,5.71877434 C4.42635081,5.71877434 4.18916821,5.47462944 4.18916821,5.17346143 C4.18916821,4.87229343 4.42635081,4.62814853 4.71893038,4.62814853 L7.63262227,4.62814853 C7.92520183,4.62814853 8.16238442,4.87229344 8.16238442,5.17346143 C8.16238442,5.47462943 7.92520183,5.71877434 7.63262227,5.71877434 L7.63262227,5.71877434 Z M7.63262227,8.32537003 L4.71893038,8.32537003 C4.42635081,8.32537003 4.18916821,8.08122513 4.18916821,7.78005713 C4.18916821,7.47888913 4.42635081,7.23474422 4.71893038,7.23474422 L7.63262227,7.23474422 C7.92520184,7.23474422 8.16238444,7.47888913 8.16238444,7.78005713 C8.16238444,8.08122513 7.92520184,8.32537003 7.63262227,8.32537003 Z M7.63262227,10.942872 L4.71893038,10.942872 C4.42635081,10.942872 4.18916821,10.6987271 4.18916821,10.3975591 C4.18916821,10.0963911 4.42635081,9.85224616 4.71893038,9.85224616 L7.63262227,9.85224616 C7.92520184,9.85224616 8.16238444,10.0963911 8.16238444,10.3975591 C8.16238444,10.6987271 7.92520184,10.942872 7.63262227,10.942872 Z" id="形状"></path>
                </g>
            </g>
        </g>
    </g>
</svg>