<?xml version="1.0" encoding="UTF-8"?>
<svg width="16px" height="16px" viewBox="0 0 16 16" version="1.1" xmlns="http://www.w3.org/2000/svg" xmlns:xlink="http://www.w3.org/1999/xlink">
    <title>路径</title>
    <g id="归集配置" stroke="none" stroke-width="1" fill="none" fill-rule="evenodd">
        <g id="租控图" transform="translate(-19.000000, -142.000000)" fill="#C8C8CC" fill-rule="nonzero">
            <g id="楼盘列表" transform="translate(19.000000, 142.000000)">
                <path d="M14.5369189,7.42258652 L8.77757521,4.87795993 L8.77757521,2.07228971 C8.77757521,1.59687987 8.40382862,1 7.99908842,1 C7.86599818,1 7.72926162,1.03642987 7.59981768,1.11657559 C7.47349059,1.19574933 7.37874528,1.25512964 7.31558173,1.29471651 C5.99598421,2.12175583 4.01658793,3.3623148 1.37739289,5.01639344 C1.14220602,5.16393443 1,5.428051 1,5.71220401 L1,15 L15,15 L15,8.13296903 C15,7.82695811 14.8195077,7.54826958 14.5369189,7.42258652 Z M5.4721969,10.9836066 C5.4721969,10.6612022 5.21148587,10.4007286 4.8887876,10.4007286 C4.56608933,10.4007286 4.3053783,10.6612022 4.3053783,10.9836066 L4.3053783,13.8360656 L2.16499544,13.8360656 L2.16499544,5.89799636 L7.61075661,2.4863388 L7.61075661,4.36247723 L7.5834093,4.35154827 L7.5834093,13.8378871 L5.4721969,13.8378871 L5.4721969,10.9836066 Z M13.8331814,13.8360656 L8.77757521,13.8360656 L8.77757521,6.15300546 L13.8331814,8.38797814 L13.8331814,13.8360656 Z" id="形状"></path>
                <path d="M12.4329991,10.3387978 L10.1522334,10.3387978 C9.8295351,10.3387978 9.56882407,10.0783242 9.56882407,9.75591985 C9.56882407,9.43351548 9.8295351,9.17304189 10.1522334,9.17304189 L12.4329991,9.17304189 C12.7556974,9.17304189 13.0164084,9.43351548 13.0164084,9.75591985 C13.0164084,10.0783242 12.7538742,10.3387978 12.4329991,10.3387978 Z M12.4329991,12.6703097 L10.1522334,12.6703097 C9.8295351,12.6703097 9.56882407,12.4098361 9.56882407,12.0874317 C9.56882407,11.7650273 9.8295351,11.5045537 10.1522334,11.5045537 L12.4329991,11.5045537 C12.7556974,11.5045537 13.0164084,11.7650273 13.0164084,12.0874317 C13.0164084,12.4098361 12.7538742,12.6703097 12.4329991,12.6703097 Z" id="形状"></path>
            </g>
        </g>
    </g>
</svg>