<?xml version="1.0" encoding="UTF-8"?>
<svg width="16px" height="16px" viewBox="0 0 16 16" version="1.1" xmlns="http://www.w3.org/2000/svg" xmlns:xlink="http://www.w3.org/1999/xlink">
    <title>路径</title>
    <g id="归集配置" stroke="none" stroke-width="1" fill="none" fill-rule="evenodd">
        <g id="租控图" transform="translate(-19.000000, -552.000000)" fill="#C8C8CC" fill-rule="nonzero">
            <g id="编组-5备份" transform="translate(0.000000, 530.000000)">
                <g id="合同查询" transform="translate(19.000000, 22.000000)">
                    <path d="M7.022,14 L3,14 C2.44771525,14 2,13.5522847 2,13 L2,3 C2,2.44771525 2.44771525,2 3,2 L12,2 C12.5522847,2 13,2.44771525 13,3 L13,6.422 C13.36,6.58 13.689,6.788 14,7.023 L14,3 C14,2.46956702 13.7892863,1.96085919 13.4142136,1.58578644 C13.0391408,1.21071368 12.530433,1 12,1 L3,1 C2.46956702,1 1.96085919,1.21071368 1.58578644,1.58578644 C1.21071368,1.96085919 1,2.46956702 1,3 L1,13 C1,13.530433 1.21071368,14.0391408 1.58578644,14.4142136 C1.96085919,14.7892863 2.46956702,15 3,15 L8.027,15 C7.64653825,14.7157052 7.30818882,14.3790391 7.022,14 L7.022,14 Z" id="路径"></path>
                    <path d="M11,7 C8.790861,7 7,8.790861 7,11 C7,13.209139 8.790861,15 11,15 C13.209139,15 15,13.209139 15,11 C15,8.790861 13.209139,7 11,7 L11,7 Z M11,13.998 C9.34397418,13.998 8.0015,12.6555258 8.0015,10.9995 C8.0015,9.34347418 9.34397418,8.001 11,8.001 C12.6560258,8.001 13.9985,9.34347418 13.9985,10.9995 C13.9985,12.6555258 12.6560258,13.998 11,13.998 L11,13.998 Z" id="形状"></path>
                    <path d="M11.659,10.257 L11,9 L10.341,10.257 L9,10.528 L9.934,11.575 L9.764,13 L11,12.391 L12.236,13 L12.066,11.575 L13,10.528 L11.659,10.257 Z M11,5 C11,4.72385763 10.7761424,4.5 10.5,4.5 L4.5,4.5 C4.22385763,4.5 4,4.72385763 4,5 C4,5.27614237 4.22385763,5.5 4.5,5.5 L10.5,5.5 C10.6326082,5.5 10.7597852,5.44732158 10.8535534,5.35355339 C10.9473216,5.2597852 11,5.13260824 11,5 L11,5 Z M7.5,7.5 C7.5,7.36739176 7.44732158,7.2402148 7.35355339,7.14644661 C7.2597852,7.05267842 7.13260824,7 7,7 L4.5,7 C4.22385763,7 4,7.22385763 4,7.5 C4,7.77614237 4.22385763,8 4.5,8 L7,8 C7.13260824,8 7.2597852,7.94732158 7.35355339,7.85355339 C7.44732158,7.7597852 7.5,7.63260824 7.5,7.5 L7.5,7.5 Z M4.5,9.5 C4.22385763,9.5 4,9.72385763 4,10 C4,10.2761424 4.22385763,10.5 4.5,10.5 L5.5,10.5 C5.77614237,10.5 6,10.2761424 6,10 C6,9.72385763 5.77614237,9.5 5.5,9.5 L4.5,9.5 L4.5,9.5 Z" id="形状"></path>
                </g>
            </g>
        </g>
    </g>
</svg>