<?xml version="1.0" encoding="UTF-8"?>
<svg width="16px" height="16px" viewBox="0 0 16 16" version="1.1" xmlns="http://www.w3.org/2000/svg" xmlns:xlink="http://www.w3.org/1999/xlink">
    <title>路径</title>
    <g id="归集配置" stroke="none" stroke-width="1" fill="none" fill-rule="evenodd">
        <g id="租控图" transform="translate(-19.000000, -612.000000)" fill="#C8C8CC" fill-rule="nonzero">
            <g id="编组-5备份-2" transform="translate(0.000000, 590.000000)">
                <g id="资金管理" transform="translate(19.000000, 22.000000)">
                    <path d="M11.0625,7.1875 C11.3731602,7.1875 11.625,6.93566017 11.625,6.625 C11.625,6.31433983 11.3731602,6.0625 11.0625,6.0625 L4.9375,6.0625 C4.62683983,6.0625 4.375,6.31433983 4.375,6.625 C4.375,6.93566017 4.62683983,7.1875 4.9375,7.1875 L7.4375,7.1875 L7.4375,8.3125 L4.9375,8.3125 C4.62683983,8.3125 4.375,8.56433983 4.375,8.875 C4.375,9.18566017 4.62683983,9.4375 4.9375,9.4375 L7.4375,9.4375 L7.4375,11.6704687 C7.43745854,11.8076067 7.491918,11.9391397 7.58888916,12.0361108 C7.68586032,12.133082 7.81739333,12.1875 7.95453125,12.1875 L8.04546875,12.1875 C8.18260667,12.1875 8.31413968,12.133082 8.41111084,12.0361108 C8.508082,11.9391397 8.56254146,11.8076067 8.5625,11.6704688 L8.5625,9.4375 L11.0625,9.4375 C11.2116843,9.4375 11.3547584,9.37823678 11.4602476,9.27274756 C11.5657368,9.16725835 11.625,9.02418428 11.625,8.875 C11.625,8.56433983 11.3731602,8.3125 11.0625,8.3125 L8.5625,8.3125 L8.5625,7.1875 L11.0625,7.1875 Z" id="路径"></path>
                    <path d="M7.996875,6.0625133 C8.14501196,6.0635277 8.28734578,6.00497265 8.391875,5.9 L9.525625,4.7625 C9.74144688,4.54436103 9.74144688,4.19313897 9.525625,3.975 C9.30888914,3.75828887 8.95751711,3.75828887 8.74078125,3.975 L8.004375,4.71390625 L7.27,3.97671875 C7.05081578,3.75781631 6.69574672,3.75781631 6.4765625,3.97671875 C6.2578611,4.19732699 6.2578611,4.55298551 6.4765625,4.77359375 L7.5978125,5.89859375 C7.7035268,6.0044496 7.84727556,6.06349128 7.996875,6.0625133 Z" id="路径"></path>
                    <path d="M1.5625,6.26109375 L3.8125,6.26109375 C4.12316017,6.26109375 4.375,6.00925392 4.375,5.69859375 C4.375,5.38793358 4.12316017,5.13609375 3.8125,5.13609375 L2.86984375,5.13609375 C3.875,3.3396875 5.7953125,2.125 8,2.125 C11.05875,2.125 13.5714062,4.4625 13.849375,7.44859375 L13.84375,7.44859375 C13.84375,7.75925392 14.0955898,8.01109375 14.40625,8.01109375 C14.7169102,8.01109375 14.96875,7.75925392 14.96875,7.44859375 L14.978125,7.44859375 C14.6973437,3.84046875 11.6804687,1 8,1 C5.53765625,1 3.3728125,2.2715625 2.125,4.19359375 L2.125,3.44859375 C2.125,3.13793358 1.87316017,2.88609375 1.5625,2.88609375 C1.25183983,2.88609375 1,3.13793358 1,3.44859375 L1,5.69859375 C1,6.00925392 1.25183983,6.26109375 1.5625,6.26109375 Z M14.4375,9.76109375 L12.1875,9.76109375 C11.8768398,9.76109375 11.625,10.0129336 11.625,10.3235938 C11.625,10.6342539 11.8768398,10.8860938 12.1875,10.8860938 L13.1173437,10.8860938 C12.109375,12.6703125 10.1954688,13.875 8,13.875 C4.94890625,13.875 2.44109375,11.5490625 2.1528125,8.57359375 L2.14828125,8.57359375 C2.14828125,8.26293358 1.89644142,8.01109375 1.58578125,8.01109375 C1.27512108,8.01109375 1.02328125,8.26293358 1.02328125,8.57359375 C1.31515625,12.171875 4.3271875,15 8,15 C10.4621875,15 12.6273438,13.7285937 13.875,11.8065625 L13.875,12.5735938 C13.875,12.8842539 14.1268398,13.1360938 14.4375,13.1360938 C14.7481602,13.1360938 15,12.8842539 15,12.5735938 L15,10.3235938 C15,10.0129336 14.7481602,9.76109375 14.4375,9.76109375 L14.4375,9.76109375 Z" id="形状"></path>
                </g>
            </g>
        </g>
    </g>
</svg>