<?xml version="1.0" encoding="UTF-8"?>
<svg width="16px" height="16px" viewBox="0 0 16 16" version="1.1" xmlns="http://www.w3.org/2000/svg" xmlns:xlink="http://www.w3.org/1999/xlink">
    <title>路径</title>
    <g id="归集配置" stroke="none" stroke-width="1" fill="none" fill-rule="evenodd">
        <g id="租控图" transform="translate(-19.000000, -672.000000)" fill="#C8C8CC" fill-rule="nonzero">
            <g id="编组-5备份-3" transform="translate(0.000000, 650.000000)">
                <g id="客户" transform="translate(19.000000, 22.000000)">
                    <path d="M6.32504348,7.48141666 C5.52497826,6.80766666 4.99989131,5.79645832 4.99989131,4.6295 C4.99989131,2.63333334 6.57486956,1 8.5,1 C10.4248478,1 12.0001087,2.63333334 12.0001087,4.6295 C12.0001087,5.7705 11.4750217,6.807375 10.6749565,7.48141666 C13.174913,8.23333334 15,10.6185833 15,13.4445417 C15,14.3 14.3248478,15 13.499913,15 L3.50008696,15 C2.67486956,15 2,14.3 2,13.4445417 C2,10.6182917 3.82508696,8.23333332 6.32504348,7.48141666 Z M8.52373913,7.39333334 C10.0065036,7.39333334 11.2085217,6.152789 11.2085217,4.6225 C11.2085217,3.092211 10.0065036,1.85166666 8.52373913,1.85166666 C7.04097464,1.85166666 5.83895652,3.092211 5.83895652,4.6225 C5.83895652,6.152789 7.04097464,7.39333334 8.52373913,7.39333334 Z M13.6383913,14.125 C13.921,14.125 14.1521739,13.8741667 14.1521739,13.5679167 C14.1521739,10.506 11.8398696,8 9.01378261,8 L7.98621739,8 C5.16013044,8 2.84782609,10.5057083 2.84782609,13.5679167 C2.84782609,13.8741667 3.079,14.125 3.36160869,14.125 L13.6383913,14.125 Z" id="形状" stroke="#C8C8CC" stroke-width="0.22"></path>
                    <path d="M8.21456521,9.687875 C8.09021738,9.58433334 8.01532608,9.45454166 8.01532608,9.273125 C8.01532608,8.987875 8.23915217,8.75454166 8.51271739,8.75454166 C8.78656522,8.75454166 9.0101087,8.987875 9.0101087,9.273125 C9.0101087,9.45454166 8.93578261,9.58433334 8.81143478,9.687875 L9.48291304,12.151 C9.53265217,12.3324167 9.48291304,12.5138333 9.35856522,12.6433333 L8.68708696,13.3433333 C8.641941,13.3930396 8.57887225,13.4212415 8.5128587,13.4212415 C8.44684515,13.4212415 8.3837764,13.3930396 8.33863044,13.3433333 L7.66715218,12.6433333 C7.54280435,12.5138333 7.49306523,12.3324167 7.54280435,12.151 L8.21428261,9.687875 L8.21456521,9.687875 Z" id="路径"></path>
                </g>
            </g>
        </g>
    </g>
</svg>