<?xml version="1.0" encoding="UTF-8"?>
<svg width="16px" height="16px" viewBox="0 0 16 16" version="1.1" xmlns="http://www.w3.org/2000/svg" xmlns:xlink="http://www.w3.org/1999/xlink">
    <title>路径</title>
    <g id="归集配置" stroke="none" stroke-width="1" fill="none" fill-rule="evenodd">
        <g id="租控图" transform="translate(-19.000000, -732.000000)" fill="#C8C8CC" fill-rule="nonzero">
            <g id="编组-5备份-4" transform="translate(0.000000, 710.000000)">
                <g id="装修公司备份" transform="translate(19.000000, 22.000000)">
                    <path d="M13.8333333,13.8333333 L14.4166667,13.8333333 C14.7388328,13.8333333 15,14.0945006 15,14.4166667 C15,14.7388328 14.7388328,15 14.4166667,15 L1.58333333,15 C1.26116723,15 1,14.7388328 1,14.4166667 C1,14.0945006 1.26116723,13.8333333 1.58333333,13.8333333 L2.16666667,13.8333333 L2.16666667,2.16666667 C2.16666667,1.52233446 2.68900113,1 3.33333333,1 L9.16666667,1 C9.81099887,1 10.3333333,1.52233446 10.3333333,2.16666667 L10.3333333,6.83333333 L12.6666667,6.83333333 C13.3109989,6.83333333 13.8333333,7.35566779 13.8333333,8 L13.8333333,13.8333333 Z M12.6666667,13.8333333 L12.6666667,8 L10.3333333,8 L10.3333333,13.8333333 L12.6666667,13.8333333 Z M9.16666667,13.8333333 L9.16666667,2.16666667 L3.33333333,2.16666667 L3.33333333,13.8333333 L9.16666667,13.8333333 Z M4.58333333,4.5 L5.75,4.5 C6.0721661,4.5 6.33333333,4.76116723 6.33333333,5.08333333 C6.33333333,5.40549944 6.0721661,5.66666667 5.75,5.66666667 L4.58333333,5.66666667 C4.26116723,5.66666667 4,5.40549944 4,5.08333333 C4,4.76116723 4.26116723,4.5 4.58333333,4.5 Z M4.58333333,7.06666667 L7.74311942,7.06666667 C8.06528552,7.06666667 8.32645275,7.3278339 8.32645275,7.65 C8.32645275,7.9721661 8.06528552,8.23333333 7.74311942,8.23333333 L4.58333333,8.23333333 C4.26116723,8.23333333 4,7.9721661 4,7.65 C4,7.3278339 4.26116723,7.06666667 4.58333333,7.06666667 Z M4.58333333,9.63333333 L7.74311942,9.63333333 C8.06528552,9.63333333 8.32645275,9.89450056 8.32645275,10.2166667 C8.32645275,10.5388328 8.06528552,10.8 7.74311942,10.8 L4.58333333,10.8 C4.26116723,10.8 4,10.5388328 4,10.2166667 C4,9.89450056 4.26116723,9.63333333 4.58333333,9.63333333 Z" id="形状"></path>
                </g>
            </g>
        </g>
    </g>
</svg>