<?xml version="1.0" encoding="UTF-8"?>
<svg width="16px" height="16px" viewBox="0 0 16 16" version="1.1" xmlns="http://www.w3.org/2000/svg" xmlns:xlink="http://www.w3.org/1999/xlink">
    <title>路径</title>
    <g id="归集配置" stroke="none" stroke-width="1" fill="none" fill-rule="evenodd">
        <g id="租控图" transform="translate(-19.000000, -792.000000)" fill="#C8C8CC" fill-rule="nonzero">
            <g id="新闻资讯" transform="translate(19.000000, 792.000000)">
                <path d="M11.5875,1.87479615 C11.7406625,1.87479615 11.8875519,1.93562555 11.9958542,2.04390258 C12.1041564,2.15217961 12.165,2.29903478 12.165,2.45216162 L12.165,13.5445769 C12.165,13.863447 11.9064444,14.1219423 11.5875,14.1219423 L2.4525,14.1219423 C2.29933748,14.1219423 2.15244809,14.0611129 2.04414583,13.9528359 C1.93584357,13.8445589 1.87499999,13.6977037 1.87499999,13.5445769 L1.87499999,2.45216162 C1.87499999,2.29903477 1.93584356,2.15217961 2.04414583,2.04390258 C2.15244809,1.93562555 2.29933748,1.87479615 2.4525,1.87479615 L11.5875,1.87479615 M11.5875,1 L2.4525,1 C1.6503064,1 1,1.6501549 1,2.45216162 L1,13.5445769 C1,14.3465836 1.6503064,14.9967385 2.4525,14.9967385 L11.5875,14.9967385 C12.3896936,14.9967385 13.04,14.3465836 13.04,13.5445769 L13.04,2.45216162 C13.04,1.6501549 12.3896936,1 11.5875,1 L11.5875,1 Z M3.49200001,3.13450262 L2.617,3.13450262 L2.617,6.46222719 L3.49200001,6.46222719 L3.49200001,3.13450262 Z M5.942,3.13450262 L5.067,3.13450262 L5.067,6.46222719 L5.942,6.46222719 L5.942,3.13450262 Z M3.49200001,3.13450262 L2.8095,3.68387461 L5.0915,6.50771659 L5.7705,5.9583446 L3.49200001,3.13450262 Z M11.2865,4.07928247 C11.2865,3.83771418 11.0906246,3.64188438 10.849,3.64188438 L7.3875,3.64188438 C7.14587542,3.64188438 6.95,3.83771418 6.95,4.07928247 C6.95,4.32085076 7.14587542,4.51668055 7.3875,4.51668055 L10.849,4.51668055 C11.0906246,4.51668055 11.2865,4.32085075 11.2865,4.07928247 L11.2865,4.07928247 Z M11.2865,6.41673779 C11.2865,6.17516951 11.0906246,5.97933972 10.849,5.97933972 L7.3875,5.97933972 C7.14590563,5.97938242 6.95007735,6.1751997 6.95007735,6.41673779 C6.95007735,6.65827588 7.14590563,6.85409316 7.3875,6.85413587 L10.849,6.85413587 C11.0906246,6.85413587 11.2865,6.65830607 11.2865,6.41673779 Z M11.2865,8.91865479 C11.2865,8.67708651 11.0906246,8.48125671 10.849,8.48125671 L2.84099999,8.48125671 C2.59937541,8.48125671 2.40349999,8.6770865 2.40349999,8.91865479 C2.40349999,9.16022308 2.59937541,9.35605288 2.84099999,9.35605288 L10.849,9.35605288 C11.0906246,9.35605288 11.2865,9.16022308 11.2865,8.91865479 L11.2865,8.91865479 Z M11.2865,11.424071 C11.2865,11.1825027 11.0906246,10.9866729 10.849,10.9866729 L2.84099999,10.9866729 C2.59937541,10.9866729 2.40349999,11.1825027 2.40349999,11.424071 C2.40349999,11.6656393 2.59937541,11.8614691 2.84099999,11.8614691 L10.849,11.8614691 C11.0906246,11.8614691 11.2865,11.6656393 11.2865,11.424071 L11.2865,11.424071 Z M13.915,2.97703931 L13.915,13.1561674 C13.9150276,13.3124531 13.8316466,13.4568788 13.6962723,13.5350297 C13.560898,13.6131805 13.394102,13.6131805 13.2587277,13.5350297 C13.1233533,13.4568788 13.0399724,13.3124531 13.04,13.1561674 L13.04,13.5445769 C13.04,14.3465836 12.3896936,14.9967385 11.5875,14.9967385 L13.6,14.9967385 C14.3178092,15.0470171 14.9422752,14.5101015 15,13.793019 L15,4.14926615 C14.9653072,3.54937599 14.5105445,3.05805334 13.915,2.97703931 Z" id="形状"></path>
            </g>
        </g>
    </g>
</svg>