<?xml version="1.0" encoding="UTF-8"?>
<svg width="16px" height="16px" viewBox="0 0 16 16" version="1.1" xmlns="http://www.w3.org/2000/svg" xmlns:xlink="http://www.w3.org/1999/xlink">
    <title>路径</title>
    <g id="归集配置" stroke="none" stroke-width="1" fill="none" fill-rule="evenodd">
        <g id="租控图" transform="translate(-19.000000, -852.000000)" fill="#C8C8CC" fill-rule="nonzero">
            <g id="菜单数据统计" transform="translate(19.000000, 852.000000)">
                <path d="M15,1.42827725 L15,1.2272196 C15,1.2272196 15,1.12668341 14.8999952,1.12668341 L14.7999904,1.02614722 L12.6000017,1.02614722 C12.1999971,0.925625759 12.0000021,1.12668341 12.0000021,1.42827725 C12.0000021,1.72987109 12.1999971,1.93092874 12.4999969,1.93092874 L13.2999914,1.93092874 L10.2999935,4.94686713 L8.10000481,2.83571025 C7.89999519,2.6346526 7.5999954,2.6346526 7.40000042,2.83571025 L2.100009,8.16387789 C1.89999937,8.36493554 1.89999937,8.66652938 2.100009,8.86758703 C2.30000398,9.06865941 2.60000377,9.06865941 2.79999874,8.86758703 L7.80000502,3.94156415 L9.90000356,6.05272102 C10.0999985,6.25377867 10.3999983,6.25377867 10.5999933,6.05272102 L13.9999958,2.6346526 L13.9999958,3.43889793 C13.9999958,3.74049177 14.1999908,3.94156415 14.4999906,3.94156415 C14.7999904,3.94156415 15,3.74049177 15,3.43889793 L15,1.42827725 Z M14.0000021,13.4920308 C14.0000021,13.7936246 13.8000008,13.9946823 13.5000021,13.9946823 L12.5000021,13.9946823 C12.1999971,13.9946823 12.0000021,13.7936246 12.0000021,13.4920308 L12.0000021,7.56069022 C12.0000021,7.25909638 12.1999971,7.058024 12.5000021,7.058024 L13.5000021,7.058024 C13.8000008,7.058024 14.0000021,7.25909638 14.0000021,7.56069022 L14.0000021,13.4920308 L14.0000021,13.4920308 Z M13.4999979,6.05272102 L12.4999979,6.05272102 C11.7000023,6.05272102 10.9999979,6.75643016 10.9999979,7.56069022 L10.9999979,13.4920308 C10.9999979,14.2962761 11.7000023,15 12.4999979,15 L13.4999979,15 C14.2999956,15 14.9999979,14.2962761 14.9999979,13.4920308 L14.9999979,7.56069022 C14.9999979,6.75643016 14.2999956,6.05272102 13.4999979,6.05272102 L13.4999979,6.05272102 Z M8.99999581,13.4920308 C8.99999581,13.7936246 8.79999456,13.9946823 8.49999581,13.9946823 L7.49999581,13.9946823 C7.20000544,13.9946823 6.99999581,13.7936246 6.99999581,13.4920308 L6.99999581,9.5713109 C6.99999581,9.26971706 7.20000544,9.06865941 7.49999581,9.06865941 L8.49999581,9.06865941 C8.79999456,9.06865941 8.99999581,9.26971706 8.99999581,9.5713109 L8.99999581,13.4920308 Z M8.49999477,8.0633417 L7.50000628,8.0633417 C6.69999602,8.0633417 6.00000628,8.76706557 6.00000628,9.5713109 L6.00000628,13.4920308 C6.00000628,14.2962761 6.69999602,15 7.50000628,15 L8.49999477,15 C9.30000398,15 9.99999372,14.2962761 9.99999372,13.4920308 L9.99999372,9.5713109 C9.99999372,8.76706557 9.30000398,8.0633417 8.49999477,8.0633417 L8.49999477,8.0633417 Z M4.00000419,13.4920308 C4.00000419,13.7936246 3.80000293,13.9946823 3.50000419,13.9946823 L2.50000419,13.9946823 C2.19999916,13.9946823 2.00000419,13.7936246 2.00000419,13.4920308 L2.00000419,11.5819316 C2.00000419,11.2803377 2.19999916,11.0792801 2.50000419,11.0792801 L3.50000419,11.0792801 C3.80000293,11.0792801 4.00000419,11.2803377 4.00000419,11.5819316 L4.00000419,13.4920308 L4.00000419,13.4920308 Z M3.5,10.0739624 L2.5,10.0739624 C1.70000439,10.0739624 1,10.7776863 1,11.5819316 L1,13.4920308 C1,14.2962761 1.70000439,15 2.5,15 L3.5,15 C4.2999977,15 5,14.2962761 5,13.4920308 L5,11.5819316 C5,10.7776863 4.2999977,10.0739624 3.5,10.0739624 Z" id="形状"></path>
            </g>
        </g>
    </g>
</svg>