<svg xmlns="http://www.w3.org/2000/svg" width="144.045" height="123" viewBox="0 0 144.045 123">
  <g id="组_2542" data-name="组 2542" transform="translate(-7557.26 -6188.5)">
    <g id="md5__4c59ffa43a53da872eb96de7b86d78c2" transform="translate(6666.786 6073.763)">
      <path id="路径_5439" data-name="路径 5439" d="M106.1.237l34.686,60.878L106.1,120.194H34.9L.214,61.115,34.9.237Z" transform="translate(892 116)" fill="rgba(255,255,255,0)"/>
      <path id="路径_5440" data-name="路径 5440" d="M106.1.237l34.686,60.878L106.1,120.194H34.9L.214,61.115,34.9.237Z" transform="translate(892 116)" fill="none" stroke="#2e3a70" stroke-width="3"/>
    </g>
    <g id="_123" data-name="123" transform="translate(6916.948 6074.366)">
      <path id="路径_5441" data-name="路径 5441" d="M29.552,60.634l5,9h11.5m47,0h13s3.633-6.651,5-9" transform="translate(642 166)" fill="none" stroke="#36cde6" stroke-width="3"/>
      <path id="路径_5442" data-name="路径 5442" d="M5.552,68.634l-5.5-9,5.093-9M29.786,7.412l5.105-8.778H47.014m46.484,0h12.386l5,8.778m24.667,43.222,5,9-5.5,9" transform="translate(642 117)" fill="none" stroke="#36cde6" stroke-width="3"/>
    </g>
  </g>
</svg>
